<svg id="fastfood" xmlns="http://www.w3.org/2000/svg" width="24" height="24" viewBox="0 0 24 24">
  <path id="Path_2686" data-name="Path 2686" d="M0,0H24V24H0Z" fill="none"/>
  <path id="Path_2687" data-name="Path 2687" d="M21.9,5H18V2a1,1,0,1,0-2,0V5H12.1a1.01,1.01,0,0,0-1,1.1l.12,1.21C14.9,8.16,18,10.77,18,15l.02,8h1.7a1.661,1.661,0,0,0,1.63-1.47L22.89,6.1A1,1,0,0,0,21.9,5ZM15,21H2a1,1,0,1,0,0,2H15a1,1,0,0,0,0-2ZM2.1,15H14.9a.992.992,0,0,0,.99-1.16c-.65-3.23-4.02-4.85-7.39-4.85s-6.73,1.62-7.39,4.85A1,1,0,0,0,2.1,15ZM15,17H2a1,1,0,1,0,0,2H15a1,1,0,0,0,0-2Z" transform="translate(0)" fill="#c5cbd3"/>
</svg>
