<svg xmlns="http://www.w3.org/2000/svg" xmlns:xlink="http://www.w3.org/1999/xlink" width="23.18" height="26.013" viewBox="0 0 23.18 26.013">
  <defs>
    <linearGradient id="linear-gradient" y1="1" x2="1" gradientUnits="objectBoundingBox">
      <stop offset="0" stop-color="#bcea64"/>
      <stop offset="1" stop-color="#80c35f"/>
    </linearGradient>
  </defs>
  <g id="Group_47020" data-name="Group 47020" transform="translate(-351 -1389.923)">
    <circle id="Ellipse_34" data-name="Ellipse 34" cx="4.539" cy="4.539" r="4.539" transform="translate(365.103 1389.923)" fill="#011936"/>
    <path id="Path_2702" data-name="Path 2702" d="M17.82,6A10.034,10.034,0,0,0,8,16.213,12.539,12.539,0,0,0,9.1,20.932a24.226,24.226,0,0,0,4.653,6.71c1.762,1.891,3.544,3.372,4.062,3.372,1.1,0,6.87-5.861,8.638-9.934a12.314,12.314,0,0,0,1.185-4.867A10.034,10.034,0,0,0,17.82,6Zm1.118,15.2V19.929a1,1,0,0,0-2,0v1.255a5.708,5.708,0,0,1-4.582-4.694h1.257a1,1,0,0,0,0-2H12.382a5.711,5.711,0,0,1,4.556-4.526v1.088a1,1,0,0,0,2,0v-1.1a5.716,5.716,0,0,1,4.651,4.539H22.261a1,1,0,0,0,0,2h1.355A5.705,5.705,0,0,1,18.938,21.2Z" transform="translate(343.006 1384.922)" fill="url(#linear-gradient)"/>
  </g>
</svg>
