<svg xmlns="http://www.w3.org/2000/svg" width="19.263" height="24.685" viewBox="0 0 19.263 24.685">
  <g id="Group_327" data-name="Group 327" transform="translate(-178.947 -28.059)">
    <g id="Group_326" data-name="Group 326" transform="translate(178.947 26.429)">
      <path id="Subtraction_2" data-name="Subtraction 2" d="M9.631,24.685c-.508,0-2.257-1.462-3.982-3.328a23.915,23.915,0,0,1-4.561-6.623A12.422,12.422,0,0,1,0,10.078,9.873,9.873,0,0,1,9.631,0a9.874,9.874,0,0,1,9.632,10.078,12.211,12.211,0,0,1-1.163,4.8C16.368,18.9,10.709,24.685,9.631,24.685Zm.16-19.121a3.883,3.883,0,1,0,3.858,3.884A3.875,3.875,0,0,0,9.791,5.565Z" transform="translate(0 1.63)" fill="#8a8c90"/>
    </g>
  </g>
</svg>
