<?xml version="1.0" encoding="utf-8"?>
<!-- Generator: Adobe Illustrator 24.0.3, SVG Export Plug-In . SVG Version: 6.00 Build 0)  -->
<svg version="1.1" id="Layer_1" xmlns="http://www.w3.org/2000/svg" xmlns:xlink="http://www.w3.org/1999/xlink" x="0px" y="0px"
	 viewBox="0 0 22.3 20" style="enable-background:new 0 0 22.3 20;" xml:space="preserve">
<style type="text/css">
	.st0{fill:#C5CBD3;}
	.st1{fill:#8A8C90;}
</style>
<g id="group" transform="translate(310.716 21)">
	<circle id="Ellipse_171" class="st0" cx="-296.4" cy="-16" r="4"/>
	<path id="Path_1314" class="st0" d="M-298.4-10c-3.3,0-6,2.7-6,6c0,1.1,0.9,2,2,2h12c1.1,0,2-0.9,2-2v-1c0-2.8-2.2-5-5-5H-298.4z"
		/>
	<path id="Path_1315" class="st1" d="M-305.7-10c-2.8,0-5,2.2-5,5v1c0,1.1,0.9,2,2,2h12c1.1,0,2-0.9,2-2v-1c0-2.8-2.2-5-5-5H-305.7z
		"/>
	<circle id="Ellipse_172" class="st1" cx="-302.4" cy="-16" r="4"/>
</g>
</svg>
