<svg xmlns="http://www.w3.org/2000/svg" width="22.284" height="20" viewBox="0 0 22.284 20">
  <g id="Group_673" data-name="Group 673" transform="translate(-310.716 -22)">
    <rect id="Rectangle_3344" data-name="Rectangle 3344" width="20" height="20" transform="translate(313 22)" fill="none"/>
    <g id="group" transform="translate(310.716 21)">
      <circle id="Ellipse_171" data-name="Ellipse 171" cx="4" cy="4" r="4" transform="translate(10.284 2)" fill="#c5cbd3"/>
      <path id="Path_1314" data-name="Path 1314" d="M12,13a6,6,0,0,0-6,6,2,2,0,0,0,2,2H20a2,2,0,0,0,2-2V18a5,5,0,0,0-5-5Z" transform="translate(0.284 -1)" fill="#c5cbd3"/>
      <path id="Path_1315" data-name="Path 1315" d="M7,13a5,5,0,0,0-5,5v1a2,2,0,0,0,2,2H16a2,2,0,0,0,2-2V18a5,5,0,0,0-5-5Z" transform="translate(-2 -1)" fill="#8a8c90"/>
      <circle id="Ellipse_172" data-name="Ellipse 172" cx="4" cy="4" r="4" transform="translate(4.284 2)" fill="#8a8c90"/>
    </g>
  </g>
</svg>
