<svg xmlns="http://www.w3.org/2000/svg" xmlns:xlink="http://www.w3.org/1999/xlink" width="36.034" height="36.032" viewBox="0 0 36.034 36.032">
  <defs>
    <linearGradient id="linear-gradient" y1="1" x2="1" gradientUnits="objectBoundingBox">
      <stop offset="0" stop-color="#bcea64"/>
      <stop offset="1" stop-color="#80c35f"/>
    </linearGradient>
    <filter id="Path_60" x="0" y="0" width="36.034" height="36.032" filterUnits="userSpaceOnUse">
      <feOffset dy="2" input="SourceAlpha"/>
      <feGaussianBlur stdDeviation="2.5" result="blur"/>
      <feFlood flood-opacity="0.102"/>
      <feComposite operator="in" in2="blur"/>
      <feComposite in="SourceGraphic"/>
    </filter>
  </defs>
  <g id="Component_21_3" data-name="Component 21 – 3" transform="translate(7.5 5.5)">
    <g id="Group_30" data-name="Group 30">
      <g transform="matrix(1, 0, 0, 1, -7.5, -5.5)" filter="url(#Path_60)">
        <path id="Path_60-2" data-name="Path 60" d="M418.333,2969.724a1.049,1.049,0,0,1-.749-.308l-5.434-5.435-.474.322a8.471,8.471,0,0,1-4.778,1.473,9,9,0,0,1-1.284-.094,8.589,8.589,0,0,1-7.216-7.588,8.471,8.471,0,0,1,2.172-6.593,8.563,8.563,0,0,1,6.327-2.81,8.931,8.931,0,0,1,1.446.119,8.549,8.549,0,0,1,7,7.126,8.445,8.445,0,0,1-1.376,6.074l-.322.474,5.435,5.435a1.059,1.059,0,0,1,0,1.5A1.049,1.049,0,0,1,418.333,2969.724ZM406.9,2950.758a6.476,6.476,0,1,0,6.477,6.477A6.484,6.484,0,0,0,406.9,2950.758Z" transform="translate(-390.86 -2943.19)" fill="url(#linear-gradient)"/>
      </g>
    </g>
    <circle id="Ellipse_195" data-name="Ellipse 195" cx="4" cy="4" r="4" transform="translate(4.573 4.496)" fill="#c5cbd3"/>
  </g>
</svg>
